<svg width="64" height="64" viewBox="0 0 64 64" fill="none" xmlns="http://www.w3.org/2000/svg">
<rect width="64" height="64" rx="16" fill="white"/>
<path fill-rule="evenodd" clip-rule="evenodd" d="M32.9167 43.6471V47.4167H36.6667C37.3571 47.4167 37.9167 47.9763 37.9167 48.6667C37.9167 49.357 37.3571 49.9167 36.6667 49.9167H26.6667C25.9764 49.9167 25.4167 49.357 25.4167 48.6667C25.4167 47.9763 25.9764 47.4167 26.6667 47.4167H30.4167V43.6471H32.9167Z" fill="url(#paint0_linear_11_509)"/>
<path opacity="0.4" d="M46.6667 38.6666V25.3333C46.6667 22.5719 44.4282 20.3333 41.6667 20.3333H21.6667C18.9053 20.3333 16.6667 22.5719 16.6667 25.3333V38.6666C16.6667 41.4281 18.9053 43.6666 21.6667 43.6666H41.6667C44.4282 43.6666 46.6667 41.4281 46.6667 38.6666Z" fill="url(#paint1_linear_11_509)"/>
<path d="M31.6667 17C33.0825 16.0355 35.5249 15.5031 37.0039 15.3406C37.7358 15.2602 38.3334 15.8544 38.3334 16.5876V23.8888C38.3334 24.622 37.7358 25.2164 37.0039 25.2969C35.5249 25.4593 33.0825 26.0355 31.6667 27V17Z" fill="url(#paint2_linear_11_509)"/>
<path d="M31.6667 17C30.2509 16.0355 27.8085 15.5031 26.3296 15.3406C25.5976 15.2602 25 15.8544 25 16.5876V23.8888C25 24.622 25.5976 25.2164 26.3296 25.2969C27.8085 25.4593 30.2509 26.0355 31.6667 27V17Z" fill="url(#paint3_linear_11_509)"/>
<defs>
<linearGradient id="paint0_linear_11_509" x1="25.4167" y1="43.6471" x2="30.4418" y2="53.6659" gradientUnits="userSpaceOnUse">
<stop stop-color="#007E72"/>
<stop offset="0.500371" stop-color="#4DE4A7"/>
<stop offset="1" stop-color="#95FCD2"/>
</linearGradient>
<linearGradient id="paint1_linear_11_509" x1="16.6667" y1="20.3333" x2="39.2821" y2="49.4102" gradientUnits="userSpaceOnUse">
<stop stop-color="#007E72"/>
<stop offset="0.500371" stop-color="#4DE4A7"/>
<stop offset="1" stop-color="#95FCD2"/>
</linearGradient>
<linearGradient id="paint2_linear_11_509" x1="31.6667" y1="15.3333" x2="41.718" y2="21.0769" gradientUnits="userSpaceOnUse">
<stop stop-color="#007E72"/>
<stop offset="0.500371" stop-color="#4DE4A7"/>
<stop offset="1" stop-color="#95FCD2"/>
</linearGradient>
<linearGradient id="paint3_linear_11_509" x1="25" y1="15.3333" x2="35.0513" y2="21.0769" gradientUnits="userSpaceOnUse">
<stop stop-color="#007E72"/>
<stop offset="0.500371" stop-color="#4DE4A7"/>
<stop offset="1" stop-color="#95FCD2"/>
</linearGradient>
</defs>
</svg>
